<svg id="Capa_1" enable-background="new 0 0 512 512" height="512" viewBox="0 0 512 512" width="512" xmlns="http://www.w3.org/2000/svg"><g><g><path d="m510.671 108.877v295.879c0 21.714-17.605 39.318-39.318 39.318h-308.57c-21.714 0-39.318-17.605-39.318-39.318v-365.438c-.001-21.713 17.604-39.318 39.317-39.318h239.012z" fill="#f6f9f9"/><path d="m510.671 108.877h-69.558c-21.713 0-39.318-17.605-39.318-39.318v-69.559" fill="#dae7ef"/></g><path d="m391.91 310.949v140.005c0 33.715-27.332 61.047-61.047 61.047h-268.487c-33.715 0-61.047-27.332-61.047-61.047v-225.643c0-33.715 27.332-61.047 61.047-61.047h72.686c19.867 0 38.491 9.667 49.924 25.914l23.792 33.809c11.433 16.247 30.057 25.914 49.924 25.914h72.161c33.716.001 61.047 27.332 61.047 61.048z" fill="#f6de81"/><path d="m88.07 512h-25.693c-33.718 0-61.048-27.331-61.048-61.048v-225.641c0-33.718 27.33-61.048 61.048-61.048h25.693c-33.718 0-61.049 27.33-61.049 61.048v225.641c.001 33.717 27.331 61.048 61.049 61.048z" fill="#f2ce6b"/><g><path d="m326.427 149.773h-131.544c-10.563 0-19.126-8.563-19.126-19.126 0-10.563 8.563-19.126 19.126-19.126h131.544c10.563 0 19.126 8.563 19.126 19.126 0 10.563-8.563 19.126-19.126 19.126z" fill="#eccda0"/><path d="m260.655 211.182c-30.583 0-55.375-24.792-55.375-55.375v-52.46c0-30.583 24.792-55.375 55.375-55.375 30.583 0 55.375 24.792 55.375 55.375v52.46c0 30.583-24.792 55.375-55.375 55.375z" fill="#fdf0db"/><path d="m274.868 209.346c-4.535 1.205-9.29 1.841-14.209 1.841-30.587 0-55.379-24.792-55.379-55.379v-52.454c0-30.587 24.792-55.379 55.379-55.379 4.919 0 9.673.635 14.209 1.841-23.707 6.277-41.17 27.87-41.17 53.538v52.454c0 25.668 17.463 47.26 41.17 53.538z" fill="#fbe2bd"/><path d="m260.655 165.709c-9.443 0-18.882-3.593-26.071-10.782-3.017-3.017-3.017-7.909 0-10.927 3.018-3.017 7.909-3.017 10.928 0 8.349 8.351 21.939 8.35 30.29-.001 3.017-3.017 7.909-3.016 10.927.001 3.017 3.018 3.017 7.909-.001 10.927-7.189 7.188-16.632 10.782-26.073 10.782z" fill="#e28086"/><g fill="#30579d"><path d="m246.206 132.204c-4.268 0-7.726-3.459-7.726-7.726v-11.186c0-4.267 3.459-7.726 7.726-7.726s7.726 3.459 7.726 7.726v11.186c.001 4.267-3.458 7.726-7.726 7.726z"/><path d="m275.104 132.204c-4.268 0-7.726-3.459-7.726-7.726v-11.186c0-4.267 3.459-7.726 7.726-7.726 4.268 0 7.726 3.459 7.726 7.726v11.186c0 4.267-3.459 7.726-7.726 7.726z"/></g><path d="m213.198 37.104h4.865c14.755 0 26.717 11.962 26.717 26.717v.205c0 14.755-11.962 26.717-26.717 26.717h-4.865c-14.755 0-26.717-11.962-26.717-26.717v-.205c0-14.755 11.962-26.717 26.717-26.717z" fill="#b46e59"/><path d="m225.199 89.767c-2.273.64-4.666.974-7.133.974h-4.861c-14.758 0-26.724-11.957-26.724-26.715v-.204c0-14.758 11.966-26.715 26.724-26.715h4.861c2.467 0 4.861.334 7.133.974-11.298 3.107-19.591 13.45-19.591 25.741v.204c0 12.291 8.293 22.634 19.591 25.741z" fill="#a55e4d"/><path d="m240.143 56.042c0 21.21 17.194 38.403 38.403 38.403 34.498 0 62.463-27.966 62.463-62.463v-5.09h-73.116c-15.88 0-28.531 13.288-27.75 29.15z" fill="#b46e59"/><path d="m291.012 93.201c-4.026.816-8.2 1.243-12.467 1.243-21.214 0-38.402-17.188-38.402-38.402-.779-15.862 11.873-29.145 27.753-29.145h22.206c-15.88 0-28.533 13.283-27.753 29.145 0 17.846 12.17 32.845 28.663 37.159z" fill="#a55e4d"/></g><g fill="#30579d"><path d="m478.925 153.47h-105.515c-4.268 0-7.726-3.459-7.726-7.726s3.459-7.726 7.726-7.726h105.514c4.268 0 7.726 3.459 7.726 7.726.001 4.267-3.458 7.726-7.725 7.726z"/><path d="m478.925 185.673h-105.515c-4.268 0-7.726-3.459-7.726-7.726s3.459-7.726 7.726-7.726h105.514c4.268 0 7.726 3.459 7.726 7.726.001 4.266-3.458 7.726-7.725 7.726z"/><path d="m478.925 217.875h-105.515c-4.268 0-7.726-3.459-7.726-7.726s3.459-7.726 7.726-7.726h105.514c4.268 0 7.726 3.459 7.726 7.726s-3.458 7.726-7.725 7.726z"/></g><path d="m190.454 359.17h-128.426c-10.796 0-19.547-8.751-19.547-19.547v-17.431c0-10.796 8.751-19.547 19.547-19.547h128.426c10.796 0 19.547 8.751 19.547 19.547v17.431c0 10.795-8.751 19.547-19.547 19.547z" fill="#f6f9f9"/></g></svg>